<mxfile host="65bd71144e">
    <diagram id="B8bCCnxKOtK6oX4PMdL9" name="ページ1">
        <mxGraphModel dx="1891" dy="953" grid="1" gridSize="10" guides="1" tooltips="1" connect="1" arrows="1" fold="1" page="1" pageScale="1" pageWidth="827" pageHeight="1169" math="0" shadow="0">
            <root>
                <mxCell id="0"/>
                <mxCell id="1" parent="0"/>
                <mxCell id="46" value="" style="shape=ext;double=1;rounded=0;whiteSpace=wrap;html=1;glass=0;fillColor=none;fontColor=#ffffff;strokeColor=#A50040;" vertex="1" parent="1">
                    <mxGeometry x="680" y="10" width="420" height="270" as="geometry"/>
                </mxCell>
                <mxCell id="22" value="" style="shape=ext;double=1;rounded=0;whiteSpace=wrap;html=1;glass=0;fillColor=none;fontColor=#ffffff;strokeColor=#A50040;" vertex="1" parent="1">
                    <mxGeometry x="230" y="10" width="400" height="270" as="geometry"/>
                </mxCell>
                <mxCell id="4" value="FROM_CSV&lt;br&gt;TO_DB" style="shape=process;whiteSpace=wrap;html=1;backgroundOutline=1;" vertex="1" parent="1">
                    <mxGeometry x="40" y="40" width="120" height="60" as="geometry"/>
                </mxCell>
                <mxCell id="23" value="FROM_DB&lt;br&gt;TO_DB" style="shape=process;whiteSpace=wrap;html=1;backgroundOutline=1;" vertex="1" parent="1">
                    <mxGeometry x="354" y="30" width="120" height="60" as="geometry"/>
                </mxCell>
                <mxCell id="26" value="" style="group" vertex="1" connectable="0" parent="1">
                    <mxGeometry x="240" y="150" width="126" height="100" as="geometry"/>
                </mxCell>
                <mxCell id="2" value="" style="shape=cylinder3;whiteSpace=wrap;html=1;boundedLbl=1;backgroundOutline=1;size=15;" vertex="1" parent="26">
                    <mxGeometry y="20" width="106" height="60" as="geometry"/>
                </mxCell>
                <mxCell id="8" value="" style="shape=cylinder3;whiteSpace=wrap;html=1;boundedLbl=1;backgroundOutline=1;size=15;" vertex="1" parent="26">
                    <mxGeometry x="10" y="30" width="106" height="60" as="geometry"/>
                </mxCell>
                <mxCell id="9" value="main" style="shape=cylinder3;whiteSpace=wrap;html=1;boundedLbl=1;backgroundOutline=1;size=15;" vertex="1" parent="26">
                    <mxGeometry x="20" y="40" width="106" height="60" as="geometry"/>
                </mxCell>
                <mxCell id="27" value="" style="group" vertex="1" connectable="0" parent="1">
                    <mxGeometry x="460" y="150" width="126" height="100" as="geometry"/>
                </mxCell>
                <mxCell id="28" value="" style="shape=cylinder3;whiteSpace=wrap;html=1;boundedLbl=1;backgroundOutline=1;size=15;" vertex="1" parent="27">
                    <mxGeometry y="20" width="106" height="60" as="geometry"/>
                </mxCell>
                <mxCell id="29" value="" style="shape=cylinder3;whiteSpace=wrap;html=1;boundedLbl=1;backgroundOutline=1;size=15;" vertex="1" parent="27">
                    <mxGeometry x="10" y="30" width="106" height="60" as="geometry"/>
                </mxCell>
                <mxCell id="30" value="tmp" style="shape=cylinder3;whiteSpace=wrap;html=1;boundedLbl=1;backgroundOutline=1;size=15;" vertex="1" parent="27">
                    <mxGeometry x="20" y="40" width="106" height="60" as="geometry"/>
                </mxCell>
                <mxCell id="31" value="" style="edgeStyle=none;html=1;entryX=0.004;entryY=0.573;entryDx=0;entryDy=0;entryPerimeter=0;exitX=1;exitY=0.553;exitDx=0;exitDy=0;exitPerimeter=0;" edge="1" parent="1" source="9" target="30">
                    <mxGeometry relative="1" as="geometry">
                        <mxPoint x="370" y="220" as="sourcePoint"/>
                        <mxPoint x="270" y="230" as="targetPoint"/>
                    </mxGeometry>
                </mxCell>
                <mxCell id="32" value="&lt;p style=&quot;text-align: left; line-height: 100%;&quot;&gt;&lt;span style=&quot;border: 0px solid rgb(217, 217, 227); box-sizing: border-box; --tw-border-spacing-x: 0; --tw-border-spacing-y: 0; --tw-translate-x: 0; --tw-translate-y: 0; --tw-rotate: 0; --tw-skew-x: 0; --tw-skew-y: 0; --tw-scale-x: 1; --tw-scale-y: 1; --tw-pan-x: ; --tw-pan-y: ; --tw-pinch-zoom: ; --tw-scroll-snap-strictness: proximity; --tw-gradient-from-position: ; --tw-gradient-via-position: ; --tw-gradient-to-position: ; --tw-ordinal: ; --tw-slashed-zero: ; --tw-numeric-figure: ; --tw-numeric-spacing: ; --tw-numeric-fraction: ; --tw-ring-inset: ; --tw-ring-offset-width: 0px; --tw-ring-offset-color: #fff; --tw-ring-color: rgba(69,89,164,.5); --tw-ring-offset-shadow: 0 0 transparent; --tw-ring-shadow: 0 0 transparent; --tw-shadow: 0 0 transparent; --tw-shadow-colored: 0 0 transparent; --tw-blur: ; --tw-brightness: ; --tw-contrast: ; --tw-grayscale: ; --tw-hue-rotate: ; --tw-invert: ; --tw-saturate: ; --tw-sepia: ; --tw-drop-shadow: ; --tw-backdrop-blur: ; --tw-backdrop-brightness: ; --tw-backdrop-contrast: ; --tw-backdrop-grayscale: ; --tw-backdrop-hue-rotate: ; --tw-backdrop-invert: ; --tw-backdrop-opacity: ; --tw-backdrop-saturate: ; --tw-backdrop-sepia: ; font-weight: 600; color: var(--tw-prose-bold); margin-top: 1.25em; font-family: Söhne, ui-sans-serif, system-ui, -apple-system, &amp;quot;Segoe UI&amp;quot;, Roboto, Ubuntu, Cantarell, &amp;quot;Noto Sans&amp;quot;, sans-serif, &amp;quot;Helvetica Neue&amp;quot;, Arial, &amp;quot;Apple Color Emoji&amp;quot;, &amp;quot;Segoe UI Emoji&amp;quot;, &amp;quot;Segoe UI Symbol&amp;quot;, &amp;quot;Noto Color Emoji&amp;quot;; background-color: rgb(52, 53, 65);&quot;&gt;&lt;font style=&quot;font-size: 13px;&quot;&gt;From_Request_Reception_To_Response_Transmission&lt;/font&gt;&lt;/span&gt;&lt;/p&gt;" style="shape=process;whiteSpace=wrap;html=1;backgroundOutline=1;" vertex="1" parent="1">
                    <mxGeometry x="827" y="30" width="120" height="60" as="geometry"/>
                </mxCell>
                <mxCell id="34" value="" style="group" vertex="1" connectable="0" parent="1">
                    <mxGeometry x="50" y="170" width="110" height="80" as="geometry"/>
                </mxCell>
                <mxCell id="3" value="" style="shape=document;whiteSpace=wrap;html=1;boundedLbl=1;" vertex="1" parent="34">
                    <mxGeometry width="90" height="60" as="geometry"/>
                </mxCell>
                <mxCell id="6" value="" style="shape=document;whiteSpace=wrap;html=1;boundedLbl=1;" vertex="1" parent="34">
                    <mxGeometry x="10" y="10" width="90" height="60" as="geometry"/>
                </mxCell>
                <mxCell id="7" value="CSV" style="shape=document;whiteSpace=wrap;html=1;boundedLbl=1;" vertex="1" parent="34">
                    <mxGeometry x="20" y="20" width="90" height="60" as="geometry"/>
                </mxCell>
                <mxCell id="17" value="" style="edgeStyle=none;html=1;exitX=1;exitY=0.5;exitDx=0;exitDy=0;" edge="1" parent="1" source="7" target="9">
                    <mxGeometry relative="1" as="geometry">
                        <mxPoint x="210" y="320" as="sourcePoint"/>
                        <mxPoint x="270" y="220" as="targetPoint"/>
                    </mxGeometry>
                </mxCell>
                <mxCell id="40" value="view" style="shape=cylinder3;whiteSpace=wrap;html=1;boundedLbl=1;backgroundOutline=1;size=15;" vertex="1" parent="1">
                    <mxGeometry x="690" y="190" width="106" height="60" as="geometry"/>
                </mxCell>
                <mxCell id="41" value="" style="edgeStyle=none;html=1;entryX=-0.007;entryY=0.543;entryDx=0;entryDy=0;entryPerimeter=0;exitX=1.009;exitY=0.558;exitDx=0;exitDy=0;exitPerimeter=0;" edge="1" parent="1" source="30" target="40">
                    <mxGeometry relative="1" as="geometry">
                        <mxPoint x="590" y="230" as="sourcePoint"/>
                        <mxPoint x="734.4239999999998" y="220.59999999999988" as="targetPoint"/>
                    </mxGeometry>
                </mxCell>
                <mxCell id="42" value="web" style="rounded=0;whiteSpace=wrap;html=1;glass=0;fillColor=none;" vertex="1" parent="1">
                    <mxGeometry x="970" y="190" width="120" height="60" as="geometry"/>
                </mxCell>
                <mxCell id="43" value="" style="curved=1;endArrow=classic;html=1;exitX=0;exitY=0.25;exitDx=0;exitDy=0;entryX=0;entryY=0.75;entryDx=0;entryDy=0;" edge="1" parent="1" source="42" target="42">
                    <mxGeometry width="50" height="50" relative="1" as="geometry">
                        <mxPoint x="880" y="200" as="sourcePoint"/>
                        <mxPoint x="930" y="150" as="targetPoint"/>
                        <Array as="points">
                            <mxPoint x="610" y="230"/>
                        </Array>
                    </mxGeometry>
                </mxCell>
                <mxCell id="48" value="FROM_DB&lt;br&gt;TO_CSV" style="shape=process;whiteSpace=wrap;html=1;backgroundOutline=1;" vertex="1" parent="1">
                    <mxGeometry x="970" y="360" width="120" height="60" as="geometry"/>
                </mxCell>
                <mxCell id="49" value="" style="edgeStyle=elbowEdgeStyle;elbow=horizontal;endArrow=classic;html=1;curved=0;rounded=0;endSize=8;startSize=8;fontSize=13;exitX=0.5;exitY=1;exitDx=0;exitDy=0;exitPerimeter=0;entryX=0;entryY=0.75;entryDx=0;entryDy=0;" edge="1" parent="1" source="40" target="51">
                    <mxGeometry width="50" height="50" relative="1" as="geometry">
                        <mxPoint x="700" y="480" as="sourcePoint"/>
                        <mxPoint x="1060" y="520" as="targetPoint"/>
                        <Array as="points">
                            <mxPoint x="750" y="370"/>
                        </Array>
                    </mxGeometry>
                </mxCell>
                <mxCell id="50" value="" style="group" vertex="1" connectable="0" parent="1">
                    <mxGeometry x="990" y="470" width="110" height="80" as="geometry"/>
                </mxCell>
                <mxCell id="51" value="" style="shape=document;whiteSpace=wrap;html=1;boundedLbl=1;" vertex="1" parent="50">
                    <mxGeometry width="90" height="60" as="geometry"/>
                </mxCell>
                <mxCell id="52" value="" style="shape=document;whiteSpace=wrap;html=1;boundedLbl=1;" vertex="1" parent="50">
                    <mxGeometry x="10" y="10" width="90" height="60" as="geometry"/>
                </mxCell>
                <mxCell id="53" value="CSV" style="shape=document;whiteSpace=wrap;html=1;boundedLbl=1;" vertex="1" parent="50">
                    <mxGeometry x="20" y="20" width="90" height="60" as="geometry"/>
                </mxCell>
                <mxCell id="54" value="FROM_HOST&lt;br&gt;TO_FTP" style="shape=process;whiteSpace=wrap;html=1;backgroundOutline=1;" vertex="1" parent="1">
                    <mxGeometry x="1241" y="360" width="120" height="60" as="geometry"/>
                </mxCell>
                <mxCell id="55" value="" style="group" vertex="1" connectable="0" parent="1">
                    <mxGeometry x="1241" y="470" width="110" height="80" as="geometry"/>
                </mxCell>
                <mxCell id="56" value="" style="shape=document;whiteSpace=wrap;html=1;boundedLbl=1;" vertex="1" parent="55">
                    <mxGeometry width="90" height="60" as="geometry"/>
                </mxCell>
                <mxCell id="57" value="" style="shape=document;whiteSpace=wrap;html=1;boundedLbl=1;" vertex="1" parent="55">
                    <mxGeometry x="10" y="10" width="90" height="60" as="geometry"/>
                </mxCell>
                <mxCell id="58" value="CSV" style="shape=document;whiteSpace=wrap;html=1;boundedLbl=1;" vertex="1" parent="55">
                    <mxGeometry x="20" y="20" width="90" height="60" as="geometry"/>
                </mxCell>
                <mxCell id="59" value="" style="edgeStyle=none;html=1;entryX=0;entryY=0.75;entryDx=0;entryDy=0;exitX=1;exitY=0.5;exitDx=0;exitDy=0;" edge="1" parent="1" source="53" target="56">
                    <mxGeometry relative="1" as="geometry">
                        <mxPoint x="1109.9999999999995" y="569.9999999999998" as="sourcePoint"/>
                        <mxPoint x="1224.424" y="571.2" as="targetPoint"/>
                    </mxGeometry>
                </mxCell>
            </root>
        </mxGraphModel>
    </diagram>
</mxfile>